<svg width="167" height="40" viewBox="0 0 167 40" fill="none" xmlns="http://www.w3.org/2000/svg">
<path fill-rule="evenodd" clip-rule="evenodd" d="M25.8245 39.6859C56.8047 40.0342 105.472 40.2968 139.111 39.3144C168.388 37.1099 165.007 39.54 166.931 23.9962C167.551 17.3061 163.892 12.334 159.273 11.8509C155.367 11.7683 151.378 11.7506 147.871 10.8003C140.05 8.68057 137.127 6.99968 130.321 4.58955C127.447 3.57139 124.188 2.59854 120.94 1.95449C113.925 0.56304 105.419 -0.00588744 97.8288 4.58961e-05C90.8196 0.00551923 81.2132 0.311633 74.9851 1.89232C69.5239 3.27832 57.7936 8.51047 51.9533 11.0703C51.1149 11.4378 50.7198 11.7683 49.6019 11.8019C42.8774 12.0037 32.5896 12.4621 26.0894 13.0837C18.915 13.7697 8.17864 16.4721 2.11334 19.5118C1.412 19.8633 0.484654 21.2437 0.341628 22.231C-0.246766 25.1978 0.070607 28.6732 0.225336 31.4341C0.741105 40.6363 5.37177 38.733 25.8245 39.6859Z" fill="#2B2A29"/>
<path fill-rule="evenodd" clip-rule="evenodd" d="M2.03174 23.6931C2.32055 23.5721 2.22874 23.3747 2.3278 22.8018C2.58187 21.3321 2.56745 21.3035 3.96229 20.6246C16.3086 14.6148 33.425 14.2123 47.7972 13.6818C48.7312 13.6473 49.6375 13.622 50.5668 13.5849C52.0375 13.526 51.7841 13.5655 52.8631 13.0457C58.3859 10.3852 66.1069 6.89395 71.8962 4.80519C81.9472 1.17885 102.073 1.32968 113.78 2.80784C120.944 3.71226 125.794 5.20258 131.626 7.42218C136.227 9.17313 138.822 10.3874 143.747 11.8825C145.891 12.5335 146.24 12.529 148.204 12.9828L137.623 13.2971C143.632 13.4131 149.566 13.3688 155.554 13.2863C155.942 13.2809 156.314 13.2701 156.704 13.2672C156.922 13.2655 157.171 13.2738 157.384 13.2685L158.045 13.1532C154.218 13.0706 150.309 13.0529 146.874 12.1026C139.211 9.98287 136.347 8.30197 129.679 5.89184C126.863 4.87369 123.67 3.90083 120.488 3.25679C113.615 1.86533 105.281 1.2964 97.8443 1.30234C90.9769 1.30781 81.565 1.61393 75.4629 3.19461C70.1122 4.58061 58.6194 9.81276 52.8973 12.3726C52.0758 12.7401 51.6887 13.0706 50.5935 13.1042C44.005 13.306 33.805 13.6659 27.4363 14.2875C20.4071 14.9735 9.92821 17.2165 3.98565 20.2561C3.29851 20.6076 2.63083 20.8393 2.41042 21.4657C2.18632 22.1027 2.12017 23.0075 2.03174 23.6931Z" fill="#FEFEFE"/>
<path fill-rule="evenodd" clip-rule="evenodd" d="M155.593 18.8309C155.48 19.4784 156.035 20.0817 156.424 20.469C156.468 20.5126 157.243 20.7407 155.333 20.7856C151.523 20.875 146.782 20.8682 143.041 20.8232C128.567 20.9117 113.585 20.891 99.1185 20.9699C82.405 21.0612 65.8955 20.4963 49.2244 20.7995C46.8299 20.843 41.9433 20.8724 39.6584 20.8821L99.9571 21.4352C114.056 21.455 129.087 21.5105 143.241 21.2804C147.827 21.2059 152.125 21.0193 156.698 21.0211C156.873 21.0212 157.147 21.0479 157.19 21.0818C157.428 21.2709 157.526 21.2263 157.773 21.3966C158.696 22.0327 161.444 22.8 163.201 22.8495C160.165 21.5888 161.48 20.5193 160.84 19.951C159.561 19.1721 157.107 19.8929 157.125 18.9858C157.281 18.5936 158.312 18.266 158.752 18.1402C159.828 17.8329 161.876 17.5998 162.911 17.6167C163.132 17.8974 163.166 18.1282 163.223 18.5022L163.92 18.8281C163.439 18.4166 163.415 18.1392 163.228 16.963C162.064 16.9438 160.218 17.0871 159.039 17.237C157.712 17.4059 156.033 17.9719 155.593 18.8309Z" fill="#FEFEFE"/>
<path fill-rule="evenodd" clip-rule="evenodd" d="M127.888 36.7564C126.638 36.8492 121.045 37.0524 119.352 37.0715L76.1556 37.6358C74.1551 37.6523 51.8446 37.7702 51.2544 37.9643L129.704 38.3579C129.433 37.377 128.893 35.7207 129.178 33.9165C130.478 25.6688 138.283 20.5372 148.84 22.9864C149.538 23.1482 152.644 24.1561 153.361 24.4095C147.713 21.1523 141.485 21.3004 137.35 22.7754C133.23 23.981 130.719 27.0684 129.495 29.2466C127.957 31.9805 128.304 34.1589 127.888 36.7564Z" fill="#FEFEFE"/>
<path fill-rule="evenodd" clip-rule="evenodd" d="M73.1992 6.64848L77.6897 5.3885C79.2728 4.99142 80.9567 4.68913 82.6719 4.45066C93.3406 2.96721 106.295 3.16543 116.692 4.87316C119.937 5.40613 123.204 6.20884 126.078 7.2022C127.607 7.73066 130.809 8.98193 131.955 9.87717C133.515 11.0956 132.021 13.0094 130.961 14.1501C130.607 14.531 130.504 14.4424 129.823 14.4524C123.809 14.5403 117.648 14.8449 111.665 14.8697C112.19 15.0572 116.012 14.9495 116.616 14.9516L131.652 14.9789C131.983 14.7683 133.331 12.8157 133.563 12.3944C134.325 11.0061 134.148 10.3411 133.085 9.44059C132.447 8.89948 131.093 8.19436 130.06 7.78865C128.869 7.32077 127.76 6.90037 126.461 6.5184C120.91 4.88641 115.979 3.95808 109.585 3.45307C101.409 2.80733 88.8465 2.8139 80.7178 4.43635C78.895 4.80014 76.5859 5.38706 74.8717 5.98664C74.4385 6.13816 73.45 6.59044 73.1992 6.64848Z" fill="#FEFEFE"/>
<path fill-rule="evenodd" clip-rule="evenodd" d="M10.564 19.9315C18.034 18.0389 23.628 17.2953 31.0528 16.642C44.0182 15.501 61.4106 14.2181 70.2014 13.8907C81.898 13.6368 93.2581 14.5134 105.763 14.851C92.6918 15.2118 83.6624 13.9998 70.3366 14.2285C55.7173 14.7311 37.8381 16.3209 23.2418 17.8574C21.3705 17.9828 12.1803 19.5437 10.564 19.9315Z" fill="#FEFEFE"/>
<path fill-rule="evenodd" clip-rule="evenodd" d="M9.91731 35.7825L9.97578 37.053C8.27549 37.1063 5.80423 37.3723 4.35763 36.6369L2.75108 35.4368C4.82184 35.6495 5.22943 35.6208 6.5697 34.0557C7.41116 33.0732 7.85606 32.4728 5.01429 32.2891C4.29574 32.2427 2.64361 32.3714 2.15405 32.2908C1.94408 32.0186 1.84671 31.5577 1.76584 31.2065L1.49653 29.4249C1.24218 33.5357 1.82959 32.5882 4.33184 32.6684C5.09254 32.6928 6.00842 32.7756 6.55724 33.0051C6.28844 34.1707 2.34713 33.4733 2.12458 33.7584C1.75968 34.2258 6.37773 33.8507 5.04252 34.8446C4.20373 35.3004 2.91147 35.0768 1.94186 34.918C1.9043 35.3524 2.86797 36.1229 3.25674 36.445C5.28961 38.4763 9.46768 38.1215 11.8828 37.953C11.2992 33.7855 11.1946 30.1265 13.6521 26.9944C14.6924 25.6685 15.7203 24.6225 17.2875 23.7477C18.5409 23.0481 22.137 21.8685 23.9206 21.6222C21.6137 21.7158 19.1641 22.2033 17.3072 23.082C11.7267 25.4789 9.91997 30.5606 9.91731 35.7825Z" fill="#FEFEFE"/>
<path fill-rule="evenodd" clip-rule="evenodd" d="M3.58508 24.5824C3.58007 24.9103 3.55168 25.2756 3.5625 25.5966C3.58011 26.1183 3.63673 26.1574 4.32373 26.0687C3.82897 25.8244 3.94467 25.7854 3.96627 24.7498C3.99226 23.5034 3.77578 23.0118 4.47952 22.7768L6.77451 22.1045C7.70835 21.8231 8.79908 21.2857 9.79598 21.5449C10.5697 21.7461 12.188 22.1166 12.7546 22.4345C12.0917 23.1098 7.75913 24.9546 6.66788 25.6145C6.40442 25.7739 6.06903 26.1076 5.68765 26.1566L4.09524 26.3543C4.83413 26.1436 5.09567 26.364 5.79348 26.2802C6.30533 26.2188 6.52395 25.868 6.93476 25.6622C7.6178 25.3199 8.57514 24.9429 9.2981 24.6275C10.2913 24.1942 13.3413 22.8851 13.8167 22.4074C13.4829 22.0613 11.9354 21.7525 11.299 21.5972C8.89776 21.0116 9.02658 21.1804 5.79869 22.2422C5.388 22.3772 4.9321 22.5387 4.54009 22.659C3.52478 23.0277 3.70039 23.3362 3.58508 24.5824Z" fill="#FEFEFE"/>
<path fill-rule="evenodd" clip-rule="evenodd" d="M141.548 38.1061C144.003 38.0487 156.778 36.8348 159.156 36.4783C160.596 36.2624 163.169 35.4223 164.219 32.3456C161.978 34.7562 161.515 35.4439 157.407 36.1424C152.246 37.0202 141.739 38.004 141.548 38.1061Z" fill="#FEFEFE"/>
<path d="M44.2392 38.1356L45.1052 34.7174C44.3904 34.7174 43.8475 34.5749 43.4763 34.2901C43.1052 34.0052 42.9196 33.5284 42.9196 32.8597V15.5086H28.8575L28.1977 17.9979C28.995 17.9979 29.5173 18.1094 29.7647 18.3323C30.0122 18.5552 30.1359 18.7782 30.1359 19.0011C30.1359 19.1992 30.0809 19.3974 29.9709 19.5955L23.1255 32.8968C22.7681 33.5656 22.2801 34.0362 21.6615 34.3087C21.0429 34.5811 20.2663 34.7174 19.3316 34.7174L18.4656 38.1356H23.4966C23.689 37.2934 24.7062 36.8723 26.5482 36.8723H36.7752C37.435 36.8723 37.9711 36.9838 38.3835 37.2067C38.7958 37.4296 39.002 37.6897 39.002 37.9869V38.1356H44.2392ZM34.0535 32.4881C33.916 33.1569 33.6892 33.6956 33.3731 34.1043C33.0569 34.513 32.4452 34.7174 31.538 34.7174H28.074C26.9468 34.7174 26.3832 34.3706 26.3832 33.677L31.0019 21.3046C31.4143 20.4625 32.0741 20.0414 32.9813 20.0414C33.4487 20.0414 33.7442 20.1467 33.8679 20.3572C33.9916 20.5678 34.0535 20.8836 34.0535 21.3046V32.4881ZM67.3271 36.8723V15.4343H53.3062L52.6051 18.0351C53.3474 18.0351 53.8904 18.097 54.234 18.2208C54.5777 18.3447 54.777 18.6543 54.832 19.1497L45.4298 36.8723H48.8937L50.3783 33.9743C50.9831 32.8349 52.0003 32.2652 53.4299 32.2652H57.1825C57.8423 32.2652 58.3441 32.3457 58.6877 32.5067C59.0314 32.6677 59.2307 32.9959 59.2857 33.4913V36.8723H67.3271ZM59.2857 28.6241C59.0657 29.4662 58.2822 29.8873 56.9351 29.8873H54.832C53.6498 29.8873 53.0588 29.5405 53.0588 28.847C53.0588 28.0544 53.4024 27.0822 54.0897 25.9304C54.777 24.7786 55.5605 23.472 56.4403 22.0106C56.5502 21.8372 56.6671 21.639 56.7908 21.4161C56.9145 21.1932 57.052 20.9826 57.2032 20.7845C57.3544 20.5863 57.5124 20.4129 57.6774 20.2643C57.8423 20.1157 58.0348 20.0414 58.2547 20.0414C58.6121 20.0414 58.9077 20.1405 59.1413 20.3386C59.375 20.5368 59.4919 21.0198 59.4919 21.7877C59.4919 22.1344 59.4987 22.5122 59.5125 22.9209C59.5262 23.3296 59.5331 23.8435 59.5331 24.4628C59.5056 25.7508 59.4781 26.7044 59.4506 27.3237C59.4231 27.9429 59.3682 28.3764 59.2857 28.6241ZM92.6417 36.8723L98.58 15.4343H90.085L88.4767 21.2303C88.4217 21.4533 88.3324 21.7134 88.2087 22.0106C88.085 22.3078 87.9406 22.5927 87.7757 22.8651C87.6107 23.1376 87.4183 23.3791 87.1983 23.5896C86.9784 23.8002 86.7447 23.9302 86.4973 23.9798H84.0643C83.6244 23.9798 83.2464 23.9055 82.9302 23.7568C82.6141 23.6082 82.346 23.4224 82.1261 23.1995C81.9062 22.9766 81.7412 22.7351 81.6312 22.475C81.5213 22.2149 81.4663 21.9734 81.4663 21.7505C81.4663 21.6514 81.4938 21.478 81.5488 21.2303L83.157 15.4343H72.2702L71.6104 18.0351C72.2428 18.0351 72.7239 18.1032 73.0538 18.2394C73.3837 18.3756 73.5486 18.6667 73.5486 19.1125C73.5486 19.2364 73.5349 19.3726 73.5074 19.5212C73.4799 19.6699 73.4386 19.8309 73.3837 20.0042L68.6413 36.8723H77.2188L79.7343 28.4011C79.8717 27.9305 80.0367 27.497 80.2291 27.1007C80.4216 26.7044 80.8065 26.5063 81.3838 26.5063H84.1055C85.865 26.5063 86.7447 26.9769 86.7447 27.9181C86.7447 27.9924 86.7378 28.0667 86.7241 28.141C86.7104 28.2154 86.6897 28.3021 86.6623 28.4011L84.1467 36.8723H92.6417ZM111.134 36.8723V24.2447H102.875L102.462 25.7766C102.899 25.7766 103.219 25.8131 103.422 25.8861C103.624 25.959 103.741 26.1414 103.774 26.4332L98.2357 36.8723H100.276L101.151 35.1653C101.507 34.4942 102.106 34.1586 102.948 34.1586H105.158C105.547 34.1586 105.843 34.206 106.045 34.3008C106.247 34.3957 106.365 34.589 106.397 34.8808V36.8723H111.134ZM106.397 32.0139C106.268 32.5099 105.806 32.7579 105.013 32.7579H103.774C103.078 32.7579 102.729 32.5537 102.729 32.1452C102.729 31.6783 102.932 31.1056 103.337 30.4272C103.741 29.7488 104.203 28.9791 104.721 28.1183C104.786 28.0162 104.855 27.8995 104.928 27.7682C105.001 27.6369 105.081 27.5128 105.171 27.3961C105.26 27.2794 105.353 27.1773 105.45 27.0897C105.547 27.0022 105.66 26.9584 105.79 26.9584C106 26.9584 106.175 27.0168 106.312 27.1335C106.45 27.2502 106.519 27.5347 106.519 27.987C106.519 28.1913 106.523 28.4138 106.531 28.6545C106.539 28.8952 106.543 29.198 106.543 29.5627C106.527 30.3214 106.511 30.8831 106.494 31.2479C106.478 31.6126 106.446 31.868 106.397 32.0139ZM126.166 33.4583C126.199 33.3415 126.231 33.2248 126.263 33.1081C126.296 32.9914 126.312 32.8747 126.312 32.7579C126.312 32.3202 126.215 31.9519 126.021 31.6528C125.826 31.3537 125.608 31.0837 125.365 30.843C125.122 30.6023 124.903 30.3761 124.709 30.1646C124.515 29.953 124.417 29.7232 124.417 29.4752L124.442 29.3658C124.668 29.1323 124.915 28.9025 125.183 28.6764C125.45 28.4503 125.697 28.2168 125.923 27.9761C126.15 27.7353 126.34 27.4764 126.494 27.1992C126.648 26.922 126.725 26.601 126.725 26.2362C126.725 25.8131 126.591 25.4703 126.324 25.2076C126.057 24.945 125.721 24.7444 125.316 24.6058C124.911 24.4672 124.462 24.3724 123.968 24.3213C123.474 24.2702 123.009 24.2447 122.571 24.2447H113.948L113.511 25.7766C113.786 25.7766 114.058 25.8204 114.325 25.908C114.592 25.9955 114.726 26.1852 114.726 26.477L111.884 36.8723H120.337C120.92 36.8723 121.527 36.7957 122.158 36.6425C122.79 36.4893 123.377 36.2668 123.919 35.975C124.462 35.6832 124.936 35.3258 125.34 34.9027C125.745 34.4796 126.021 33.9981 126.166 33.4583ZM121.333 33.1519C121.252 33.4437 121.118 33.7355 120.932 34.0273C120.746 34.3191 120.519 34.5817 120.252 34.8151C119.984 35.0486 119.685 35.2382 119.353 35.3841C119.021 35.53 118.685 35.603 118.345 35.603C117.649 35.603 117.3 35.3696 117.3 34.9027L118.151 31.7075C118.312 31.0801 118.782 30.7664 119.559 30.7664C119.851 30.7664 120.11 30.8211 120.337 30.9305C120.563 31.04 120.754 31.1822 120.907 31.3573C121.061 31.5324 121.183 31.7367 121.272 31.9701C121.361 32.2035 121.405 32.4443 121.405 32.6923C121.405 32.8528 121.381 33.006 121.333 33.1519ZM122.061 28.5341C121.786 28.8114 121.45 29.0047 121.053 29.1141C120.656 29.2235 120.296 29.2782 119.972 29.2782C119.341 29.2782 119.025 29.0667 119.025 28.6436L119.632 26.3238C119.794 25.7256 120.288 25.4265 121.114 25.4265C121.503 25.4265 121.859 25.5396 122.183 25.7657C122.507 25.9918 122.669 26.2654 122.669 26.5864L122.061 28.5341ZM140.422 25.7766L140.883 24.2447H127.669L127.208 25.7766H129.588C130.042 25.7766 130.382 25.8605 130.608 26.0283C130.835 26.1961 130.948 26.4113 130.948 26.6739C130.948 26.7323 130.944 26.787 130.936 26.8381C130.928 26.8891 130.916 26.9511 130.9 27.0241L128.179 36.8723H133.475L136.195 27.0241C136.308 26.6447 136.527 26.342 136.851 26.1159C137.175 25.8897 137.596 25.7766 138.114 25.7766H140.422ZM156.207 30.46C156.353 29.9348 156.426 29.4168 156.426 28.9062C156.426 28.4247 156.357 27.9542 156.219 27.4946C156.082 27.035 155.879 26.5973 155.612 26.1815C155.345 25.7657 155.025 25.3937 154.653 25.0654C154.28 24.7371 153.859 24.4635 153.389 24.2447H146.977C146.119 24.5657 145.313 24.9997 144.56 25.5468C143.807 26.094 143.143 26.7177 142.568 27.418C141.993 28.1183 141.54 28.8734 141.208 29.6831C140.876 30.4928 140.71 31.3208 140.71 32.167C140.71 32.6485 140.779 33.1263 140.916 33.6005C141.054 34.0747 141.248 34.5233 141.499 34.9464C141.75 35.3696 142.066 35.7489 142.447 36.0845C142.827 36.42 143.26 36.6827 143.746 36.8723H150.183C150.912 36.6097 151.6 36.2595 152.248 35.8218C152.896 35.3841 153.483 34.8844 154.009 34.3227C154.535 33.761 154.984 33.1519 155.357 32.4953C155.729 31.8388 156.013 31.1603 156.207 30.46ZM151.47 30.46C150.985 32.2108 150.377 33.5057 149.649 34.3446C148.92 35.1835 148.07 35.603 147.098 35.603C146.418 35.603 145.912 35.4206 145.58 35.0559C145.248 34.6911 145.082 34.1148 145.082 33.327C145.082 32.9184 145.123 32.437 145.204 31.8825C145.285 31.3281 145.414 30.7591 145.592 30.1755C145.77 29.5919 145.989 29.0156 146.248 28.4466C146.507 27.8776 146.819 27.3706 147.183 26.9256C147.548 26.4806 147.956 26.1195 148.41 25.8423C148.863 25.5651 149.373 25.4265 149.94 25.4265C151.203 25.4265 151.851 26.1633 151.883 27.6369C151.883 28.1037 151.851 28.5633 151.786 29.0156C151.721 29.4679 151.616 29.9494 151.47 30.46Z" fill="#FDEB04"/>
<path d="M65.3861 13.0913L66.087 9.66451C66.1057 9.57373 66.115 9.49431 66.115 9.42623C66.1152 8.9118 65.6889 8.65443 64.8364 8.65413L62.6147 8.65335L62.4932 9.26608L63.6321 9.26648C64.1237 9.26665 64.3695 9.42183 64.3694 9.73199C64.3693 9.92869 64.3149 10.08 64.2059 10.1858C64.097 10.2917 63.9616 10.3446 63.7998 10.3446L63.2771 10.3444C63.078 10.3443 62.8757 10.3783 62.6703 10.4463C62.4649 10.5143 62.2798 10.6145 62.1148 10.7468C61.9499 10.8791 61.8145 11.0474 61.7087 11.2516C61.6028 11.4559 61.5499 11.6941 61.5498 11.9665C61.5497 12.3069 61.6601 12.5793 61.881 12.7836C62.1019 12.988 62.4146 13.0902 62.8191 13.0904L65.3861 13.0913ZM63.9581 12.0241C63.9021 12.2964 63.7309 12.4325 63.4446 12.4324C63.3388 12.4324 63.2548 12.4021 63.1926 12.3415C63.1304 12.281 63.0806 12.211 63.0433 12.1316C63.006 12.0521 62.9811 11.9746 62.9687 11.8989C62.9563 11.8232 62.9501 11.7741 62.9501 11.7514C62.9501 11.6303 62.975 11.5112 63.0248 11.394C63.0746 11.2767 63.1369 11.1708 63.2116 11.0763C63.2863 10.9817 63.3719 10.9061 63.4683 10.8494C63.5648 10.7927 63.6597 10.7644 63.7531 10.7644C63.8962 10.7645 63.9942 10.7985 64.0471 10.8666C64.1 10.9348 64.1264 11.0218 64.1264 11.1277C64.1264 11.1504 64.1264 11.1768 64.1264 11.2071C64.1263 11.2298 64.1232 11.2563 64.117 11.2865L63.9581 12.0241ZM71.1179 11.9131C71.1303 11.8526 71.1397 11.7978 71.1459 11.7486C71.1521 11.6994 71.1553 11.6521 71.1553 11.6067C71.1553 11.3874 71.1242 11.2247 71.062 11.1188C70.9998 11.0128 70.8878 10.8955 70.7261 10.7669C70.6389 10.6987 70.5643 10.6458 70.5021 10.6079C70.4398 10.5701 70.4087 10.5247 70.4088 10.4717L70.4088 10.4377C70.4212 10.3696 70.4617 10.3148 70.5301 10.2732C70.5986 10.2316 70.6826 10.1919 70.7822 10.1541C70.9067 10.1163 71.0094 10.0199 71.0903 9.86485C71.1713 9.7098 71.2118 9.54149 71.2118 9.35993C71.2118 9.19349 71.1465 9.06297 71.0159 8.96837C70.8852 8.87375 70.7281 8.80371 70.5445 8.75827C70.3609 8.71281 70.1727 8.68437 69.9798 8.67296C69.7869 8.66155 69.6282 8.65582 69.5037 8.65577L67.17 8.65495L67.0859 9.06344C67.198 9.06348 67.3053 9.08621 67.408 9.13164C67.5106 9.17706 67.562 9.26408 67.5619 9.39269C67.5619 9.43808 67.5588 9.47212 67.5526 9.49481L66.8143 13.0918L68.9519 13.0925C69.1386 13.0926 69.344 13.0718 69.568 13.0303C69.7921 12.9888 70.0099 12.9227 70.2215 12.832C70.4331 12.7412 70.6214 12.6203 70.7863 12.469C70.9513 12.3178 71.0618 12.1325 71.1179 11.9131ZM70.0537 11.7993C70.0288 11.9279 69.9837 12.0319 69.9183 12.1113C69.8529 12.1907 69.7736 12.255 69.6802 12.3041C69.5869 12.3532 69.4811 12.3872 69.3628 12.4061C69.2446 12.425 69.1232 12.4344 68.9988 12.4344C68.7187 12.4343 68.5787 12.3359 68.5788 12.1392C68.5788 12.1165 68.5788 12.0938 68.5788 12.0711C68.5788 12.0408 68.585 12.0106 68.5975 11.9803L68.7563 11.2882C68.7875 11.152 68.8466 11.031 68.9338 10.9251C69.0209 10.8192 69.1392 10.7663 69.2885 10.7664C69.3943 10.7664 69.4954 10.7948 69.5919 10.8516C69.6883 10.9083 69.7723 10.9783 69.8439 11.0616C69.9154 11.1448 69.9714 11.2413 70.0118 11.351C70.0523 11.4607 70.0725 11.5648 70.0724 11.6631C70.0724 11.6934 70.0662 11.7387 70.0537 11.7993ZM70.2409 9.85888C70.2035 10.0556 70.1008 10.186 69.9327 10.2503C69.7647 10.3145 69.5811 10.3466 69.382 10.3465C69.2575 10.3465 69.1642 10.3332 69.1019 10.3067C69.0397 10.2802 69.0086 10.2178 69.0086 10.1194C69.0086 10.0741 69.0118 10.0362 69.018 10.006L69.0928 9.58613C69.1177 9.4651 69.1831 9.38191 69.2889 9.33655C69.3947 9.2912 69.5316 9.26855 69.6996 9.26861C69.8801 9.26867 70.0201 9.2952 70.1196 9.34819C70.2192 9.40119 70.269 9.50711 70.2689 9.66598C70.2689 9.71893 70.2658 9.75676 70.2596 9.77945L70.2409 9.85888ZM78.4826 13.0959C78.6135 12.4604 78.724 11.9233 78.8144 11.4846C78.9047 11.0459 78.9795 10.6828 79.0387 10.3953C79.0979 10.1079 79.143 9.88659 79.1742 9.73151C79.2053 9.57645 79.2287 9.45919 79.2443 9.37977C79.2598 9.30034 79.2692 9.25117 79.2723 9.23225C79.2754 9.21334 79.277 9.2001 79.277 9.19253C79.277 9.04123 79.2273 8.91451 79.1277 8.81235C79.0282 8.71017 78.8975 8.65907 78.7357 8.65901L78.1476 8.65881C78.0605 8.65877 77.9811 8.68711 77.9096 8.74383C77.838 8.80054 77.7586 8.86103 77.6715 8.92531C77.5843 8.98957 77.4848 9.05007 77.3727 9.10676C77.2607 9.16346 77.1207 9.19178 76.9526 9.19172C76.8904 9.1917 76.8173 9.16331 76.7333 9.10654C76.6493 9.04977 76.5653 8.98922 76.4813 8.92489C76.3973 8.86055 76.318 8.80001 76.2433 8.74325C76.1687 8.68648 76.1095 8.65809 76.066 8.65807L75.6459 8.65793C75.565 8.6579 75.4717 8.68623 75.3659 8.74294C75.2601 8.79963 75.1527 8.86011 75.0438 8.92439C74.9349 8.98865 74.8353 9.04914 74.745 9.10584C74.6548 9.16255 74.5816 9.19089 74.5256 9.19087C74.3265 9.1908 74.227 9.08107 74.227 8.86169C74.227 8.83143 74.2286 8.79927 74.2317 8.76523C74.2348 8.73119 74.2395 8.69525 74.2457 8.65744L72.4535 8.65681L72.332 9.26953C72.5249 9.2696 72.6213 9.39446 72.6213 9.64411C72.6212 9.74245 72.6088 9.84836 72.5838 9.96183L71.939 13.0936L73.3486 13.094L73.956 10.1212C74.0495 9.68243 74.2829 9.46313 74.6563 9.46326C74.955 9.46337 75.1043 9.60337 75.1042 9.88328C75.1042 9.95137 75.0949 10.0308 75.0762 10.1216L74.4687 13.0944L75.8503 13.0949L76.4577 10.1221C76.5511 9.68331 76.7908 9.46401 77.1766 9.46415C77.4753 9.46425 77.6246 9.60425 77.6246 9.88416C77.6246 9.95225 77.6152 10.0317 77.5965 10.1225L76.9891 13.0953L78.4826 13.0959ZM84.6347 10.8739C84.6534 10.768 84.669 10.6677 84.6814 10.5732C84.6939 10.4786 84.7001 10.3822 84.7002 10.2838C84.7003 9.64835 84.4702 9.10358 84.0098 8.64951L81.6014 8.64867C81.1097 8.98893 80.716 9.39541 80.4203 9.86813C80.1246 10.3408 79.9767 10.8911 79.9765 11.5191C79.9764 12.1545 80.2127 12.6842 80.6856 13.108L83.0939 13.1088C83.9342 12.5266 84.4478 11.7816 84.6347 10.8739ZM83.1411 10.8733C83.0228 11.4483 82.8686 11.8529 82.6788 12.0874C82.4889 12.3218 82.2602 12.439 81.9926 12.4389C81.8121 12.4389 81.6784 12.3972 81.5912 12.314C81.5041 12.2307 81.4606 12.0529 81.4607 11.7806C81.4608 11.4477 81.5028 11.13 81.5869 10.8274C81.671 10.5248 81.7753 10.2582 81.8998 10.0275C82.0243 9.79682 82.1582 9.61341 82.3013 9.47729C82.4445 9.34117 82.5783 9.27313 82.7028 9.27317C82.8832 9.27323 83.0155 9.33381 83.0995 9.45488C83.1835 9.57595 83.2254 9.77265 83.2253 10.045C83.2253 10.2114 83.2175 10.3589 83.2019 10.4875C83.1863 10.6161 83.1661 10.7447 83.1411 10.8733ZM86.1749 10.7723L86.567 10.7724C86.959 10.7726 87.25 10.8464 87.4397 10.994C87.6295 11.1416 87.7243 11.3364 87.7243 11.5785C87.7242 11.7752 87.69 11.9303 87.6215 12.0437C87.553 12.1572 87.4566 12.2423 87.3321 12.2989C87.2076 12.3556 87.0598 12.3934 86.8886 12.4123C86.7175 12.4311 86.5261 12.4405 86.3146 12.4404L85.3624 12.4401L85.2876 13.0982L87.6213 13.0991C87.7955 13.0991 87.9775 13.0822 88.1674 13.0482C88.3572 13.0142 88.5361 12.9556 88.7041 12.8725C88.8722 12.7893 89.0185 12.6778 89.1429 12.5379C89.2674 12.398 89.3515 12.2221 89.3951 12.0103C89.42 11.912 89.4325 11.8098 89.4325 11.7039C89.4325 11.5602 89.3952 11.441 89.3206 11.3464C89.2459 11.2519 89.1588 11.1667 89.0593 11.091C88.9597 11.0153 88.8602 10.9434 88.7606 10.8753C88.6611 10.8072 88.5895 10.7277 88.546 10.6369L88.5553 10.5802C88.6674 10.4819 88.7841 10.3874 88.9054 10.2966C89.0268 10.2059 89.1388 10.1114 89.2415 10.0131C89.3442 9.91475 89.4283 9.81455 89.4936 9.71244C89.559 9.61034 89.5917 9.49498 89.5917 9.36637C89.5919 8.89733 89.1905 8.66268 88.3877 8.6624L86.1941 8.66163L86.1193 9.27437L87.1647 9.27474C87.4261 9.27483 87.6221 9.30705 87.7528 9.37141C87.8835 9.43575 87.9488 9.55493 87.9488 9.72892C87.9487 10.0013 87.8257 10.1733 87.5799 10.2451C87.3341 10.3169 86.984 10.3527 86.5297 10.3525L86.2497 10.3524L86.1749 10.7723ZM94.0342 13.1013L94.7351 9.67457C94.7538 9.58379 94.7631 9.50436 94.7631 9.43628C94.7633 8.92185 94.337 8.66449 93.4845 8.66419L91.2628 8.66341L91.1413 9.27613L92.2801 9.27653C92.7718 9.27671 93.0176 9.43188 93.0175 9.74205C93.0174 9.93874 92.9629 10.09 92.854 10.1959C92.7451 10.3018 92.6097 10.3547 92.4479 10.3546L91.9252 10.3544C91.726 10.3544 91.5238 10.3883 91.3184 10.4564C91.113 10.5244 90.9279 10.6245 90.7629 10.7569C90.598 10.8892 90.4626 11.0575 90.3567 11.2617C90.2509 11.4659 90.198 11.7042 90.1979 11.9765C90.1978 12.317 90.3082 12.5894 90.5291 12.7937C90.75 12.998 91.0626 13.1003 91.4671 13.1004L94.0342 13.1013ZM92.6062 12.0341C92.5501 12.3065 92.379 12.4426 92.0927 12.4425C91.9869 12.4424 91.9029 12.4121 91.8407 12.3516C91.7785 12.291 91.7287 12.2211 91.6914 12.1416C91.6541 12.0622 91.6292 11.9846 91.6168 11.909C91.6043 11.8333 91.5981 11.7841 91.5981 11.7614C91.5982 11.6404 91.6231 11.5212 91.6729 11.404C91.7227 11.2868 91.785 11.1809 91.8597 11.0863C91.9344 10.9918 92.02 10.9162 92.1164 10.8595C92.2129 10.8028 92.3078 10.7744 92.4011 10.7745C92.5443 10.7745 92.6423 10.8086 92.6952 10.8767C92.7481 10.9448 92.7745 11.0318 92.7745 11.1377C92.7744 11.1604 92.7744 11.1869 92.7744 11.2172C92.7744 11.2399 92.7713 11.2663 92.7651 11.2966L92.6062 12.0341ZM99.9244 13.1034L100.663 9.52913C100.681 9.43835 100.691 9.35136 100.691 9.26814C100.691 8.86719 100.445 8.66663 99.9534 8.66646L99.272 8.66622C99.2097 8.6662 99.135 8.68508 99.0479 8.72287C98.9608 8.76067 98.8721 8.80414 98.7818 8.85328C98.6916 8.90242 98.606 8.94589 98.5251 8.98369C98.4442 9.02148 98.382 9.04037 98.3384 9.04036C98.133 9.04029 98.0304 8.91543 98.0304 8.66579L95.9021 8.66503L95.79 9.27777C96.0576 9.27786 96.1913 9.39895 96.1913 9.64103C96.1913 9.67129 96.185 9.72425 96.1726 9.79989L95.481 13.1018L97.1146 13.1024L97.6753 10.3905C97.694 10.3149 97.7252 10.2241 97.7687 10.1182C97.8123 10.0123 97.8684 9.91018 97.9368 9.81186C98.0053 9.71353 98.0831 9.63035 98.1702 9.56229C98.2574 9.49423 98.3507 9.46023 98.4503 9.46027C98.6121 9.46032 98.7257 9.52466 98.791 9.65329C98.8563 9.78192 98.8889 9.92945 98.8889 10.0959C98.8889 10.1942 98.8795 10.2926 98.8608 10.3909L98.3001 13.1028L99.9244 13.1034ZM104.965 13.1051L105.872 8.66853L104.555 8.66807L104.219 10.3247C104.138 10.7181 103.942 10.9147 103.631 10.9146C103.413 10.9145 103.234 10.8407 103.094 10.6931C102.954 10.5455 102.884 10.3129 102.884 9.99516L103.08 8.66755L101.307 8.66693L101.232 9.27967C101.344 9.27971 101.423 9.31189 101.47 9.37622C101.517 9.44053 101.54 9.51809 101.54 9.60887C101.54 9.73747 101.523 9.86418 101.489 9.989C101.454 10.1138 101.437 10.2292 101.437 10.3351C101.437 10.6528 101.488 10.9006 101.591 11.0784C101.694 11.2562 101.834 11.3868 102.011 11.47C102.188 11.5533 102.395 11.6045 102.632 11.6235C102.868 11.6425 103.123 11.652 103.397 11.6521C103.702 11.6522 103.855 11.7771 103.854 12.0267C103.854 12.057 103.853 12.0854 103.85 12.1118C103.847 12.1383 103.842 12.1705 103.836 12.2083L103.649 13.1047L104.965 13.1051ZM110.286 13.107L110.987 9.68027C111.005 9.58949 111.015 9.51006 111.015 9.44198C111.015 8.92755 110.589 8.67019 109.736 8.66989L107.514 8.66911L107.393 9.28183L108.532 9.28223C109.023 9.28241 109.269 9.43758 109.269 9.74775C109.269 9.94444 109.215 10.0957 109.106 10.2016C108.997 10.3075 108.861 10.3604 108.7 10.3603L108.177 10.3601C107.978 10.3601 107.775 10.394 107.57 10.4621C107.365 10.5301 107.18 10.6302 107.015 10.7626C106.85 10.8949 106.714 11.0632 106.608 11.2674C106.503 11.4716 106.45 11.7099 106.45 11.9822C106.449 12.3227 106.56 12.5951 106.781 12.7994C107.002 13.0037 107.314 13.106 107.719 13.1061L110.286 13.107ZM108.858 12.0398C108.802 12.3122 108.631 12.4483 108.344 12.4482C108.239 12.4481 108.155 12.4178 108.092 12.3573C108.03 12.2968 107.98 12.2268 107.943 12.1473C107.906 12.0679 107.881 11.9903 107.868 11.9147C107.856 11.839 107.85 11.7898 107.85 11.7671C107.85 11.6461 107.875 11.527 107.925 11.4097C107.974 11.2925 108.037 11.1866 108.111 11.092C108.186 10.9975 108.272 10.9219 108.368 10.8652C108.465 10.8085 108.559 10.7801 108.653 10.7802C108.796 10.7802 108.894 10.8143 108.947 10.8824C109 10.9505 109.026 11.0375 109.026 11.1434C109.026 11.1661 109.026 11.1926 109.026 11.2229C109.026 11.2456 109.023 11.272 109.017 11.3023L108.858 12.0398ZM114.496 13.1085L114.627 12.4504L114.524 12.4503C114.213 12.4502 113.951 12.3518 113.74 12.155C113.528 11.9583 113.423 11.6745 113.423 11.3038C113.423 11.0239 113.473 10.7611 113.572 10.5152C113.672 10.2694 113.803 10.0557 113.964 9.87422C114.126 9.69272 114.313 9.54905 114.525 9.44321C114.736 9.33737 114.954 9.28449 115.178 9.28457L115.281 9.2846L115.402 8.67188L114.086 8.67142C113.794 8.67131 113.501 8.74875 113.209 8.90373C112.916 9.05871 112.653 9.26288 112.42 9.51623C112.186 9.76958 111.998 10.0627 111.855 10.3955C111.711 10.7283 111.64 11.0725 111.64 11.428C111.64 11.6928 111.679 11.9292 111.756 12.1373C111.834 12.3454 111.941 12.5213 112.078 12.6651C112.215 12.8089 112.377 12.9186 112.564 12.9943C112.75 13.07 112.956 13.108 113.18 13.108L114.496 13.1085ZM122.598 13.1113C122.729 12.4759 122.84 11.9388 122.93 11.5001C123.02 11.0613 123.095 10.6982 123.154 10.4108C123.213 10.1233 123.259 9.90207 123.29 9.74699C123.321 9.59193 123.344 9.47467 123.36 9.39525C123.375 9.31582 123.385 9.26665 123.388 9.24773C123.391 9.22882 123.393 9.21558 123.393 9.20801C123.393 9.05671 123.343 8.92999 123.243 8.82783C123.144 8.72565 123.013 8.67455 122.851 8.67449L122.263 8.67429C122.176 8.67425 122.097 8.70259 122.025 8.75931C121.954 8.81602 121.874 8.87651 121.787 8.94079C121.7 9.00505 121.6 9.06555 121.488 9.12224C121.376 9.17894 121.236 9.20726 121.068 9.2072C121.006 9.20718 120.933 9.17879 120.849 9.12202C120.765 9.06525 120.681 9.0047 120.597 8.94037C120.513 8.87603 120.434 8.81549 120.359 8.75873C120.284 8.70196 120.225 8.67357 120.182 8.67355L119.762 8.67341C119.681 8.67338 119.587 8.70171 119.481 8.75842C119.376 8.81511 119.268 8.87559 119.159 8.93987C119.05 9.00413 118.951 9.06462 118.861 9.12132C118.77 9.17803 118.697 9.20637 118.641 9.20635C118.442 9.20628 118.343 9.09655 118.343 8.87717C118.343 8.84691 118.344 8.81475 118.347 8.78071C118.35 8.74667 118.355 8.71073 118.361 8.67292L116.569 8.67229L116.448 9.28501C116.641 9.28508 116.737 9.40994 116.737 9.65959C116.737 9.75793 116.724 9.86384 116.699 9.97731L116.055 13.109L117.464 13.1095L118.072 10.1367C118.165 9.69791 118.398 9.47861 118.772 9.47874C119.071 9.47885 119.22 9.61885 119.22 9.89876C119.22 9.96685 119.21 10.0463 119.192 10.137L118.584 13.1099L119.966 13.1104L120.573 10.1375C120.667 9.69879 120.906 9.47949 121.292 9.47963C121.591 9.47973 121.74 9.61973 121.74 9.89964C121.74 9.96773 121.731 10.0472 121.712 10.1379L121.105 13.1108L122.598 13.1113ZM128.451 13.1134L129.339 8.67677L127.724 8.6762L127.182 11.4108C127.163 11.494 127.126 11.5791 127.07 11.6661C127.014 11.7531 126.947 11.8325 126.869 11.9043C126.791 11.9761 126.706 12.0347 126.612 12.0801C126.519 12.1255 126.432 12.1481 126.351 12.1481C126.096 12.148 125.968 12.0042 125.968 11.7168C125.968 11.6108 125.981 11.5087 126.006 11.4104L126.548 8.67579L124.41 8.67504L124.298 9.28777C124.572 9.28787 124.709 9.41652 124.709 9.67373C124.709 9.71913 124.704 9.76829 124.695 9.82125C124.685 9.87421 124.674 9.93472 124.662 10.0028C124.537 10.5928 124.442 11.0524 124.377 11.3814C124.311 11.7105 124.263 11.9545 124.232 12.1133C124.201 12.2722 124.182 12.3724 124.176 12.414C124.17 12.4556 124.167 12.4878 124.167 12.5105C124.167 12.9114 124.412 13.112 124.904 13.1121L125.585 13.1124C125.648 13.1124 125.725 13.0897 125.819 13.0444C125.912 12.999 126.009 12.9499 126.108 12.897C126.208 12.844 126.3 12.7949 126.384 12.7495C126.468 12.7042 126.528 12.6815 126.566 12.6815C126.752 12.6816 126.846 12.78 126.846 12.9766C126.846 13.0372 126.842 13.0826 126.836 13.1128L128.451 13.1134Z" fill="#FEFEFE"/>
<path fill-rule="evenodd" clip-rule="evenodd" d="M6.9099 21.9846C9.5644 21.1969 8.81594 21.1356 11.4393 21.8287C12.088 22.0001 13.113 22.1177 12.8529 22.494C12.0609 23.6391 8.30165 24.8482 7.13534 25.4225C6.90196 25.5375 6.20855 26.2229 5.8906 26.2677C5.3704 26.3411 4.13201 26.7664 3.76973 26.357C3.29673 25.8225 3.67486 24.094 3.69219 23.7241C3.73315 22.8504 4.25541 22.7723 6.9099 21.9846Z" fill="#FEFEFE"/>
</svg>
